HIERARCHY
ROOT Hips
{
  OFFSET -187.679 86.5976 -156.378
  CHANNELS 6 Xposition Yposition Zposition Zrotation Xrotation Yrotation
  JOINT LeftUpLeg
  {
    OFFSET 8.64259 1.95398 -2.38835
    CHANNELS 3 Zrotation Xrotation Yrotation
    JOINT LeftLeg
    {
      OFFSET 43.7702 0 0
      CHANNELS 3 Zrotation Xrotation Yrotation
      JOINT LeftFoot
      {
        OFFSET 40.6238 0 0
        CHANNELS 3 Zrotation Xrotation Yrotation
        JOINT LeftToeBase
        {
          OFFSET 12.7242 0 0
          CHANNELS 3 Zrotation Xrotation Yrotation
          End Site
          {
            OFFSET 0 0 0
          }
        }
      }
    }
  }
  JOINT RightUpLeg
  {
    OFFSET -8.2249 1.95398 -2.59336
    CHANNELS 3 Zrotation Xrotation Yrotation
    JOINT RightLeg
    {
      OFFSET 43.5653 0 0
      CHANNELS 3 Zrotation Xrotation Yrotation
      JOINT RightFoot
      {
        OFFSET 40.6238 0 0
        CHANNELS 3 Zrotation Xrotation Yrotation
        JOINT RightToeBase
        {
          OFFSET 12.7242 0 0
          CHANNELS 3 Zrotation Xrotation Yrotation
          End Site
          {
            OFFSET 0 0 0
          }
        }
      }
    }
  }
  JOINT Spine
  {
    OFFSET 0.165834 0.87714 6.61349
    CHANNELS 3 Zrotation Xrotation Yrotation
    JOINT Spine1
    {
      OFFSET 7.38963 1.71661e-005 0
      CHANNELS 3 Zrotation Xrotation Yrotation
      JOINT Spine2
      {
        OFFSET 11.9445 1.14441e-005 0
        CHANNELS 3 Zrotation Xrotation Yrotation
        JOINT Spine3
        {
          OFFSET 14.7254 4.19617e-005 0
          CHANNELS 3 Zrotation Xrotation Yrotation
          JOINT Spine4
          {
            OFFSET 10.9679 0 0
            CHANNELS 3 Zrotation Xrotation Yrotation
            JOINT RightShoulder
            {
              OFFSET 2.46616 -1.6653 3.69651
              CHANNELS 3 Zrotation Xrotation Yrotation
              JOINT RightArm
              {
                OFFSET 13.0012 0 0
                CHANNELS 3 Zrotation Xrotation Yrotation
                JOINT RightForeArm
                {
                  OFFSET 28.7848 1.52588e-005 0
                  CHANNELS 3 Zrotation Xrotation Yrotation
                  JOINT RightHand
                  {
                    OFFSET 26.5688 1.52588e-005 0
                    CHANNELS 3 Zrotation Xrotation Yrotation
                    End Site
                    {
                      OFFSET 0 0 0
                    }
                  }
                }
              }
            }
            JOINT LeftShoulder
            {
              OFFSET 2.38034 -1.29275 -3.7523
              CHANNELS 3 Zrotation Xrotation Yrotation
              JOINT LeftArm
              {
                OFFSET 16.3182 6.10352e-005 0
                CHANNELS 3 Zrotation Xrotation Yrotation
                JOINT LeftForeArm
                {
                  OFFSET 27.0901 0 0
                  CHANNELS 3 Zrotation Xrotation Yrotation
                  JOINT LeftHand
                  {
                    OFFSET 24.5451 1.52588e-005 0
                    CHANNELS 3 Zrotation Xrotation Yrotation
                    End Site
                    {
                      OFFSET 0 0 0
                    }
                  }
                }
              }
            }
            JOINT Neck
            {
              OFFSET 5.0226 -0.0266342 0
              CHANNELS 3 Zrotation Xrotation Yrotation
              JOINT Head
              {
                OFFSET 6.69363 2.86102e-005 0
                CHANNELS 3 Zrotation Xrotation Yrotation
                End Site
                {
                  OFFSET 0 0 0
                }
              }
            }
          }
        }
      }
    }
  }
}
MOTION
Frames:	9
Frame Time:	0.0416667
24.1523 101.748 14.8608 -154.72 -80.2319 -156.043 -173.482 -6.67552 90.5914 -16.037 9.5541 6.72935 71.5111 4.89165 -3.76572 17.5609 -7.20794 6.03104 172.208 -4.32941 86.0743 -18.9068 3.1159 0.82034 67.3887 -3.21471 1.58767 28.3277 -0.914774 2.90685 0.221932 7.65287 -89.7828 11.5671 0.543208 0.376762 -0.10375 0.559268 0.352483 -22.639 0.404863 0.522605 -2.62637 0.404857 0.522589 86.0479 -49.6215 -106.739 27.8664 -25.0382 -11.3726 -16.4271 -17.7445 -17.3166 -8.3299 -0.119364 -3.53 -88.445 -45.0076 80.2783 -30.2344 21.5141 -7.79086 8.29591 -10.4058 -11.2822 0.88686 -0.043194 -2.65667 7.06464 -1.07026 -2.97704 6.68414 -0.165043 3.42816 
23.9865 101.756 15.0063 -157.185 -80.3209 -158.826 -173.717 -6.96686 90.273 -15.8022 9.70992 6.96168 71.2647 4.9623 -3.2914 17.6737 -6.51466 4.65 171.752 -4.463 85.633 -19.1238 1.30246 0.950401 67.4365 -3.17007 0.155368 27.821 -1.08892 3.18304 0.227311 7.63779 -89.839 11.5976 0.52765 0.26633 -0.0732445 0.538859 0.242837 -22.6088 0.423216 0.412597 -2.59613 0.423214 0.412594 87.0923 -48.5464 -105.465 28.7836 -24.9028 -11.0638 -16.5831 -18.4683 -17.3507 -8.63605 -0.176825 -2.88612 -89.1151 -45.9659 79.4292 -30.1787 21.403 -6.39051 8.08364 -9.98209 -13.2738 -2.52619 -0.0823121 -4.56099 6.55853 -1.16509 -1.95698 6.66747 -0.500752 3.07448 
23.6631 101.76 15.2286 -158.151 -80.3935 -159.823 -173.874 -7.45041 90.2643 -15.1065 9.73564 7.35163 70.9509 4.77291 -3.6264 17.8338 -6.6737 5.15851 171.61 -4.69234 85.6578 -19.1907 1.52206 1.18765 67.662 -3.19002 0.32334 27.6011 -1.10482 3.10008 0.249227 7.63524 -89.8177 11.6026 0.581168 0.303045 -0.068272 0.593942 0.277161 -22.6038 0.463218 0.463698 -2.59119 0.463224 0.463694 86.9727 -48.9055 -105.543 28.6401 -23.7965 -10.9407 -16.7381 -18.5044 -17.3784 -8.26534 -0.0530357 -4.60766 -89.0166 -45.2837 79.4345 -30.0886 22.5049 -5.72886 7.71222 -10.8724 -12.1348 -0.509479 -0.0567532 -2.13349 6.7339 -1.21969 -2.64447 6.24724 -0.42561 3.08959 
23.334 101.745 15.2998 -158.707 -80.5479 -160.428 -173.822 -7.29284 90.4059 -15.2022 10.1814 7.39265 70.6614 4.68 -3.447 18.2274 -6.75719 5.75008 171.74 -4.75009 85.8676 -19.0722 1.82047 1.17719 67.7616 -3.25639 0.315107 27.6489 -1.12378 3.19309 0.221925 7.60502 -89.8531 11.6633 0.510361 0.23955 -0.00751437 0.520414 0.216849 -22.5431 0.414765 0.381861 -2.5304 0.414771 0.381855 86.9841 -48.6119 -105.612 28.2398 -24.4603 -11.0109 -16.8273 -19.7247 -17.5697 -8.69318 -0.0733928 -4.25009 -89.214 -45.9945 79.2812 -30.4291 21.984 -4.95279 7.67397 -10.9508 -11.4624 -1.52445 -0.0745102 -2.65036 6.64084 -1.10539 -2.08409 6.50404 -0.43891 2.84678 
23.1378 101.731 15.3027 -162.187 -80.5878 -164.026 -173.675 -7.20964 90.624 -15.5153 10.6812 7.31732 70.8635 4.71862 -3.64347 18.5791 -6.4648 5.4746 171.516 -4.88535 85.7635 -19.2543 2.24155 1.42167 67.9183 -3.31303 0.332697 27.5876 -1.20937 3.44081 0.173308 7.6266 -89.849 11.6201 0.415532 0.257799 -0.0507739 0.42648 0.23925 -22.5861 0.318849 0.370761 -2.57343 0.318844 0.370759 87.1299 -48.604 -105.389 28.2263 -24.1312 -11.0789 -16.696 -18.1674 -17.6806 -8.98517 -0.104483 -3.84167 -89.2565 -46.0147 79.2194 -31.1018 21.9181 -4.61294 7.87788 -10.1167 -11.777 -2.28295 -0.0850903 -2.07447 6.54379 -1.27845 -2.36966 7.00084 -0.538636 2.87527 
22.9833 101.75 15.4301 -162.546 -80.3699 -164.572 -173.546 -7.6246 90.6612 -15.316 10.8234 7.23239 70.7462 4.65447 -3.79851 18.1461 -6.65314 5.43714 171.381 -5.15903 85.5872 -19.3085 2.1478 1.42925 68.0561 -3.32129 0.375523 27.6721 -1.16952 3.36108 0.179648 7.63993 -89.8345 11.5933 0.434885 0.284741 -0.0775509 0.446999 0.265329 -22.6128 0.329203 0.402279 -2.60019 0.329209 0.402287 87.1332 -48.4462 -105.431 28.4492 -24.0444 -11.0962 -16.7148 -18.3184 -17.6344 -9.44072 -0.0960895 -4.0074 -89.2457 -46.0129 79.2359 -31.5658 21.6236 -4.47133 8.35686 -8.79813 -12.4973 -1.78548 -0.0669538 -0.990831 6.63367 -1.37772 -2.23654 6.54613 -0.680338 2.76839 
22.8596 101.72 15.4421 -162.727 -80.5894 -164.583 -173.541 -7.23435 90.8817 -15.6297 10.9122 7.29764 70.8922 4.69677 -3.85816 17.9811 -6.87537 5.74898 171.661 -5.09925 85.9372 -19.0596 2.33757 1.37736 67.6236 -3.20699 0.620101 28.4604 -0.955236 3.12386 0.170343 7.61477 -89.8536 11.644 0.407506 0.249486 -0.0269269 0.418094 0.231293 -22.5622 0.313689 0.360419 -2.54959 0.313689 0.360413 86.9783 -48.6608 -105.606 28.1984 -24.1693 -11.1987 -16.7789 -17.8715 -17.9066 -10.2091 -0.101489 -4.04408 -89.0989 -45.8083 79.4205 -31.4507 21.3756 -4.87496 7.69226 -11.331 -11.8377 -2.90568 -0.0912908 -3.53363 6.43439 -1.4319 -2.49458 6.58472 -0.680364 2.83841 
22.818 101.716 15.4178 -163.501 -80.7065 -165.134 -173.29 -6.94134 91.2858 -15.8568 11.3375 7.12521 70.8597 4.71247 -3.74751 18.5524 -6.44345 5.39627 171.9 -5.1079 86.3083 -19.0392 2.79135 1.37284 67.7389 -3.24345 0.533249 28.0472 -1.01661 3.07748 0.153683 7.59394 -89.883 11.6857 0.360577 0.195384 0.0148171 0.36883 0.179319 -22.5205 0.28519 0.294722 -2.50786 0.285183 0.29471 87.1034 -48.6919 -105.404 28.3148 -24.2124 -11.2216 -16.4687 -16.8065 -17.6758 -10.6771 -0.109396 -3.96548 -89.1827 -45.7474 79.2759 -31.0952 21.4128 -4.78629 7.47499 -12.3919 -12.5707 -2.78599 -0.0890096 -3.89828 6.30659 -1.42695 -2.56843 6.56448 -0.656707 2.93839 
22.9864 101.77 15.4953 -165.075 -80.2282 -166.783 -173.101 -7.50732 91.2942 -15.9285 11.4937 7.03531 71.0459 4.72886 -3.73579 18.3008 -6.43914 5.1278 171.683 -5.82402 86.0445 -18.7765 2.82304 1.3662 67.8961 -3.321 0.341686 27.4667 -1.20104 3.3378 0.159123 7.65536 -89.8802 11.5628 0.372681 0.200325 -0.108082 0.381134 0.183711 -22.6434 0.295241 0.303065 -2.63075 0.295243 0.303059 87.3245 -48.5548 -105.104 28.3493 -24.4377 -11.2111 -16.7497 -18.4941 -17.8805 -9.65869 -0.0646581 -4.42482 -89.2593 -46.1228 79.2389 -30.2402 20.9618 -5.21036 7.75391 -11.6478 -12.7858 -2.05215 -0.0886796 -2.90209 6.5253 -1.34543 -2.29588 6.28316 -0.652531 2.68693 
